<?xml version="1.0" encoding="utf-8"?>
<!-- Generator: Adobe Illustrator 24.0.0, SVG Export Plug-In . SVG Version: 6.00 Build 0)  -->
<svg version="1.1" id="Слой_1" xmlns="http://www.w3.org/2000/svg" xmlns:xlink="http://www.w3.org/1999/xlink" x="0px" y="0px"
	 viewBox="0 0 455 141.73" enable-background="new 0 0 455 141.73" xml:space="preserve">
<g>
	<path fill="#282727" d="M388.59,23.54c-0.07,0-0.13-0.02-0.18-0.06l-10.31-8.31c-0.09-0.07-0.13-0.2-0.09-0.31
		c0.04-0.11,0.14-0.19,0.26-0.19l57.44-1.42c0.15-0.01,0.27,0.1,0.29,0.25c0.02,0.15-0.08,0.28-0.22,0.31l-47.12,9.74
		C388.63,23.54,388.61,23.54,388.59,23.54 M379.06,15.21l9.61,7.74l43.9-9.07L379.06,15.21z"/>
	<path fill="#282727" d="M388.7,38.79c-0.03,0-0.06,0-0.09-0.01c-0.12-0.04-0.2-0.14-0.2-0.27l-0.1-15.26c0-0.14,0.1-0.25,0.23-0.28
		l47.12-9.74c0.15-0.03,0.29,0.06,0.33,0.2c0.04,0.14-0.03,0.29-0.17,0.34L395.49,29.1l-6.56,9.57
		C388.88,38.75,388.79,38.79,388.7,38.79 M388.88,23.49l0.1,14.12l6.1-8.9c0.03-0.05,0.08-0.08,0.13-0.11l37.09-14.08L388.88,23.49z
		"/>
	<path fill="#282727" d="M388.7,38.8c-0.08,0-0.16-0.03-0.21-0.1c-0.09-0.1-0.1-0.24-0.02-0.35l6.61-9.65
		c0.03-0.05,0.08-0.08,0.13-0.11l40.41-15.34c0.14-0.06,0.3,0.01,0.36,0.15c0.06,0.14,0.01,0.3-0.13,0.37l-47.02,24.99
		C388.78,38.79,388.74,38.8,388.7,38.8 M395.49,29.1l-5.91,8.62l42.02-22.34L395.49,29.1z"/>
	<polygon fill="#EE7016" points="395.24,28.89 435.65,13.54 412.78,43.7 	"/>
	<path fill="#282727" d="M412.78,43.98c-0.07,0-0.13-0.02-0.18-0.07l-17.53-14.81c-0.08-0.07-0.11-0.17-0.1-0.27
		c0.02-0.1,0.09-0.18,0.18-0.22l40.41-15.34c0.12-0.05,0.25-0.01,0.33,0.1c0.08,0.1,0.07,0.24,0,0.34L413,43.86
		c-0.05,0.06-0.12,0.1-0.19,0.11C412.8,43.98,412.79,43.98,412.78,43.98 M395.79,28.98l16.94,14.3l22.1-29.13L395.79,28.98z"/>
	<polygon fill="#282727" points="107.72,93.04 153.55,93.04 153.55,80.93 126.34,80.93 126.34,75.05 153.55,75.05 153.55,63.81 
		126.34,63.81 126.34,57.92 153.55,57.92 153.55,45.82 107.72,45.82 	"/>
	<polygon fill="#282727" points="198.09,93.04 235.28,93.04 235.28,80.93 216.84,80.93 216.84,45.82 198.09,45.82 	"/>
	<polygon fill="#282727" points="157.3,93.04 194.48,93.04 194.48,80.93 176.04,80.93 176.04,45.82 157.3,45.82 	"/>
	<polygon fill="#282727" points="106.54,45.84 89.35,45.84 75.08,66.68 64.52,80.56 39.58,45.87 22.63,45.87 64.51,104.31 	"/>
	<polygon fill="#EE7016" points="30.97,33.7 64.52,81.63 67.41,77.76 82.44,77.76 58.3,40.98 42.94,40.98 55.69,33.7 	"/>
	<polygon fill="#C6C6C6" points="62.61,33.7 79.6,60.09 97.68,33.7 	"/>
	<path fill-rule="evenodd" clip-rule="evenodd" fill="#282727" d="M319.08,80.21c0,2.68-0.33,5.34-1.01,7.93
		c-0.65,2.43-1.62,4.75-2.94,6.89c-1.3,2.06-2.89,3.9-4.79,5.44c-1.95,1.58-4.14,2.76-6.52,3.56c-2.57,0.88-5.29,1.26-8.01,1.27
		c-2.73-0.01-5.47-0.39-8.05-1.27c-2.38-0.8-4.58-2-6.53-3.56c-1.9-1.54-3.52-3.38-4.8-5.44c-1.35-2.14-2.31-4.47-2.96-6.89
		c-0.68-2.59-0.99-5.25-0.99-7.93c0-2.67,0.32-5.34,0.99-7.92c0.65-2.43,1.62-4.75,2.96-6.9c1.28-2.06,2.9-3.9,4.8-5.44
		c1.95-1.57,4.16-2.75,6.53-3.57c2.58-0.88,5.32-1.25,8.05-1.26c2.72,0.01,5.45,0.38,8.01,1.26c2.37,0.81,4.56,2,6.52,3.57
		c1.9,1.54,3.49,3.38,4.79,5.44c1.33,2.15,2.29,4.48,2.94,6.9C318.76,74.87,319.08,77.54,319.08,80.21 M277.47,80.21
		c0,2.19,0.26,4.38,0.81,6.5c0.52,1.99,1.29,3.9,2.34,5.67c1.01,1.67,2.26,3.17,3.75,4.44c1.5,1.26,3.22,2.23,5.07,2.91
		c2.04,0.73,4.2,1.05,6.36,1.05c2.15-0.01,4.29-0.31,6.32-1.05c1.84-0.68,3.55-1.63,5.04-2.9c1.49-1.27,2.75-2.78,3.76-4.45
		c1.05-1.77,1.81-3.67,2.34-5.67c0.55-2.12,0.81-4.31,0.81-6.5c0-2.2-0.26-4.37-0.81-6.51c-0.52-1.98-1.29-3.88-2.34-5.65
		c-1.01-1.67-2.25-3.18-3.76-4.45c-1.49-1.27-3.2-2.23-5.04-2.91c-2.03-0.73-4.17-1.04-6.32-1.05c-2.16,0.02-4.32,0.32-6.36,1.05
		c-1.85,0.68-3.57,1.64-5.07,2.91c-1.49,1.27-2.75,2.78-3.75,4.45c-1.06,1.77-1.83,3.66-2.34,5.65
		C277.73,75.84,277.47,78.01,277.47,80.21"/>
	<path fill-rule="evenodd" clip-rule="evenodd" fill="#282727" d="M328.32,83.32v20.9h-5.01V56.2h20.58
		c2.03-0.01,4.04,0.19,6.01,0.64c1.82,0.4,3.54,1.1,5.08,2.13c1.52,1.05,2.68,2.42,3.51,4.07c0.93,1.87,1.27,3.99,1.27,6.05
		c-0.01,2.09-0.41,4.14-1.32,6.02c-0.88,1.79-2.15,3.3-3.78,4.48c-0.69,0.48-1.41,0.89-2.18,1.23c0.34,0.13,0.66,0.28,0.98,0.44
		c1.2,0.63,2.25,1.45,3.06,2.53c2.04,2.77,2.34,5.99,2.34,9.28v11.16h-4.82V93c0-7.12-3.38-9.65-10.15-9.68H328.32z M328.32,60.74
		v18.04h15.57c1.51,0,3-0.16,4.45-0.57c1.24-0.35,2.41-0.9,3.4-1.7c0.97-0.78,1.7-1.76,2.2-2.89c0.61-1.35,0.81-2.88,0.82-4.33
		c-0.01-1.36-0.22-2.74-0.86-3.96c-0.56-1.04-1.31-1.91-2.29-2.59c-1.05-0.72-2.22-1.21-3.45-1.52c-1.4-0.33-2.82-0.49-4.26-0.48
		H328.32z"/>
	<rect x="364.84" y="56.2" fill-rule="evenodd" clip-rule="evenodd" fill="#282727" width="4.74" height="48.02"/>
	<path fill-rule="evenodd" clip-rule="evenodd" fill="#282727" d="M409.55,63.4c1.13,2.13,1.61,4.53,1.73,6.91l0.06,1.1h-5.02
		l-0.05-1c-0.07-1.64-0.4-3.26-1.15-4.73c-0.67-1.32-1.6-2.42-2.8-3.31c-1.29-0.95-2.77-1.61-4.31-2.03c-1.84-0.5-3.76-0.7-5.68-0.7
		c-1.06-0.01-2.12,0.09-3.17,0.28c-1.11,0.18-2.19,0.49-3.22,0.89c-1,0.41-1.92,0.95-2.76,1.64c-0.81,0.67-1.43,1.5-1.88,2.44
		c-0.53,1.07-0.72,2.29-0.73,3.47c0.01,1.12,0.2,2.26,0.76,3.24c0.52,0.9,1.23,1.64,2.1,2.23c1.02,0.68,2.15,1.21,3.32,1.6
		c1.37,0.47,2.79,0.84,4.22,1.16c1.54,0.35,3.11,0.67,4.67,0.96c1.61,0.31,3.2,0.67,4.78,1.08c1.55,0.4,3.08,0.9,4.53,1.55
		c1.39,0.61,2.7,1.4,3.85,2.4c1.16,1.01,2.06,2.24,2.68,3.64c0.73,1.59,0.99,3.38,0.99,5.11c0,1.86-0.32,3.73-1.13,5.43
		c-0.71,1.53-1.69,2.89-2.96,4.01c-1.22,1.09-2.61,1.98-4.11,2.63c-1.49,0.65-3.05,1.14-4.64,1.45c-1.54,0.29-3.1,0.45-4.67,0.45
		c-2.17,0-4.34-0.18-6.47-0.57c-1.97-0.38-3.91-0.98-5.71-1.85c-1.73-0.84-3.28-1.96-4.59-3.35c-1.35-1.44-2.33-3.12-3.01-4.96
		c-0.76-2.11-1.03-4.36-1.01-6.59l0.01-1.04h5.07l-0.06,1.1c-0.08,1.65,0.04,3.33,0.57,4.9c0.47,1.32,1.17,2.51,2.15,3.53
		c0.98,1.02,2.14,1.82,3.42,2.44c1.42,0.66,2.94,1.12,4.47,1.41c1.71,0.32,3.43,0.46,5.16,0.46c1.13,0,2.27-0.11,3.37-0.3
		c1.17-0.21,2.32-0.55,3.43-1.01c1.06-0.45,2.04-1.05,2.92-1.78c0.86-0.74,1.53-1.64,2.01-2.64c0.55-1.15,0.76-2.44,0.77-3.71
		c-0.01-1.19-0.2-2.41-0.77-3.46c-0.52-0.94-1.23-1.74-2.12-2.37c-1.01-0.73-2.15-1.28-3.32-1.7c-1.38-0.49-2.8-0.89-4.23-1.2
		c-1.57-0.35-3.12-0.68-4.7-0.98c-1.59-0.31-3.17-0.66-4.75-1.06c-1.54-0.39-3.05-0.87-4.5-1.48c-1.39-0.59-2.67-1.35-3.83-2.28
		c-1.16-0.97-2.07-2.16-2.71-3.51c-0.72-1.52-0.98-3.23-0.99-4.91c0.01-1.74,0.29-3.48,1.02-5.07c0.64-1.45,1.55-2.73,2.73-3.81
		c1.14-1.04,2.44-1.89,3.86-2.53c1.45-0.64,2.94-1.12,4.5-1.41c1.54-0.29,3.11-0.44,4.67-0.44c2.4-0.02,4.8,0.23,7.12,0.83
		c2.13,0.54,4.14,1.41,5.94,2.68C407.17,59.88,408.56,61.5,409.55,63.4"/>
	<path fill-rule="evenodd" clip-rule="evenodd" fill="#282727" d="M231.99,38.65c-11.29,0-22.57,0.01-33.86,0.01v-4.75h34.55
		c4.99,0.02,10.12,0.55,14.9,2.07c3.86,1.25,7.58,3.08,10.74,5.71c7.79,6.51,11.58,15.94,11.82,25.52
		c0.4,16.31-7.79,29.11-20.46,34.38c-4.9,2.04-9.72,2.52-14.83,2.62v-5.06c8.13-0.17,15.62-2.3,21.32-8.09
		c11.49-11.68,11.78-33.37-0.77-44.75C249.99,41.43,242.26,38.45,231.99,38.65"/>
	<polygon fill="#282727" points="157.34,93.13 194.61,93.13 194.61,80.99 176.12,80.99 176.12,45.79 157.34,45.79 	"/>
	<path d="M234.36,128.76v-4.22h1.47c1.55-2.81,1.97-6.98,1.97-10.69h7.42v10.69h1.52v4.22h-1.38v-2.84h-9.6v2.84H234.36z
		 M237.45,124.53h6.31v-9.31h-4.48C239.09,118.48,238.66,122.15,237.45,124.53"/>
	<path d="M253.81,113.84c2.47,0,4.1,1.02,4.1,3.05c0,1.53-0.98,2.4-1.93,2.67c1,0.27,2.41,1.07,2.41,3.04
		c0,2.74-2.69,3.31-4.45,3.31h-5.09v-12.07H253.81z M253.69,115.22h-3.38v3.76h3.78c1.26,0,2.36-0.5,2.36-1.88
		C256.45,115.67,255.39,115.22,253.69,115.22 M254.05,120.36h-3.74v4.17h3.35c1.52,0,3.28-0.1,3.28-2.09
		C256.93,120.57,255.2,120.36,254.05,120.36"/>
	<polygon points="268.92,113.84 268.92,115.22 262.23,115.22 262.23,119.14 268.4,119.14 268.4,120.52 262.23,120.52 262.23,124.53 
		269.03,124.53 269.03,125.91 260.78,125.91 260.78,113.84 	"/>
	<path d="M275.56,113.84c2.79,0,5.12,0.88,5.12,3.9c0,3.02-2.33,3.9-5.12,3.9h-2.67v4.28h-1.45v-12.07H275.56z M275.62,115.22h-2.74
		v5.04h2.74c1.96,0,3.59-0.48,3.59-2.52C279.21,115.69,277.61,115.22,275.62,115.22"/>
	<polygon points="292.88,113.84 292.88,125.91 291.43,125.91 291.43,120.55 284.27,120.55 284.27,125.91 282.83,125.91 
		282.83,113.84 284.27,113.84 284.27,119.17 291.43,119.17 291.43,113.84 	"/>
	<path d="M296.04,125.91v-12.07h1.45v4.29h2.67c2.79,0,5.12,0.86,5.12,3.88c0,3.02-2.33,3.9-5.12,3.9H296.04z M297.49,124.53h2.74
		c1.98,0,3.59-0.47,3.59-2.52c0-2.03-1.62-2.5-3.59-2.5h-2.74V124.53z M306.61,113.84h1.45v12.07h-1.45V113.84z"/>
	<polygon points="319.37,113.84 319.37,115.22 312.68,115.22 312.68,119.14 318.85,119.14 318.85,120.52 312.68,120.52 
		312.68,124.53 319.47,124.53 319.47,125.91 311.23,125.91 311.23,113.84 	"/>
	<path d="M330.29,113.84c2.79,0,5.12,0.88,5.12,3.9c0,3.02-2.33,3.9-5.12,3.9h-2.67v4.28h-1.45v-12.07H330.29z M330.36,115.22h-2.74
		v5.04h2.74c1.97,0,3.59-0.48,3.59-2.52C333.95,115.69,332.34,115.22,330.36,115.22"/>
	<polygon points="345.7,113.84 345.7,115.22 339.01,115.22 339.01,119.14 345.18,119.14 345.18,120.52 339.01,120.52 339.01,124.53 
		345.8,124.53 345.8,125.91 337.56,125.91 337.56,113.84 	"/>
	<polygon points="348.21,125.91 348.21,113.84 349.66,113.84 349.66,124.53 355.04,124.53 355.04,113.84 356.49,113.84 
		356.49,124.53 361.87,124.53 361.87,113.84 363.32,113.84 363.32,125.91 	"/>
	<polygon points="374.62,113.84 374.62,115.22 367.93,115.22 367.93,119.14 374.1,119.14 374.1,120.52 367.93,120.52 367.93,124.53 
		374.72,124.53 374.72,125.91 366.48,125.91 366.48,113.84 	"/>
	<polygon points="387.18,113.84 387.18,125.91 385.73,125.91 385.73,120.55 378.58,120.55 378.58,125.91 377.13,125.91 
		377.13,113.84 378.58,113.84 378.58,119.17 385.73,119.17 385.73,113.84 	"/>
	<polygon points="398.95,125.91 398.95,117.29 398.95,116.26 391.69,125.91 390.35,125.91 390.35,113.84 391.8,113.84 391.8,122.45 
		391.8,123.48 399.06,113.84 400.4,113.84 400.4,125.91 	"/>
	<path d="M402.46,125.91l3.57-4.6c-1.73-0.41-3.05-1.57-3.05-3.64c0-2.67,2.24-3.83,4.67-3.83h4.55v12.07h-1.45v-4.42h-3.1h-0.02
		l-3.42,4.42H402.46z M407.6,120.12h3.16v-4.9h-3.16c-1.73,0-3.12,0.73-3.12,2.45C404.48,119.4,405.88,120.12,407.6,120.12"/>
</g>
</svg>
