<svg xmlns:xlink="http://www.w3.org/1999/xlink" xmlns="http://www.w3.org/2000/svg" class="icon" viewBox="0 0 24 24" width="24"  height="24" ><path d="M21.0788 11.435C21.4008 11.0162 21.6565 10.6801 21.8453 10.4265C23.2051 8.60757 23.7944 7.4456 23.6138 6.93901L23.543 6.82036C23.4959 6.7491 23.3738 6.68366 23.1774 6.62442C22.9809 6.56522 22.7294 6.55576 22.423 6.59484L19.0273 6.61894C18.9487 6.61106 18.8701 6.6129 18.7915 6.62442C18.7128 6.63645 18.6618 6.64852 18.6381 6.66003C18.6144 6.6721 18.5949 6.68177 18.5793 6.68965L18.5322 6.72526C18.4929 6.74884 18.4497 6.79049 18.4025 6.84998C18.3554 6.90943 18.3158 6.97834 18.2846 7.0577C17.9152 8.01456 17.4947 8.9044 17.023 9.72691C16.7321 10.2173 16.4648 10.6427 16.2214 11.002C15.9777 11.3622 15.7733 11.6271 15.6082 11.7968C15.4432 11.9668 15.2937 12.1035 15.1602 12.206C15.0264 12.3092 14.9244 12.3524 14.8538 12.3367C14.783 12.321 14.7161 12.3053 14.6533 12.289C14.5432 12.218 14.4547 12.1213 14.3881 11.9985C14.3212 11.8762 14.2761 11.7219 14.2524 11.5359C14.229 11.3502 14.2149 11.1899 14.2113 11.0552C14.2071 10.9209 14.2092 10.7312 14.2173 10.4858C14.2251 10.2406 14.229 10.0748 14.229 9.98757C14.229 9.68736 14.235 9.361 14.2467 9.00896C14.2584 8.65718 14.2683 8.3782 14.2761 8.17254C14.284 7.96718 14.2878 7.74949 14.2878 7.52004C14.2878 7.29109 14.274 7.11085 14.2464 6.98018C14.2188 6.84998 14.1774 6.72346 14.1227 6.60062C14.0676 6.47829 13.9871 6.38319 13.8808 6.31616C13.7747 6.24884 13.6431 6.19568 13.4859 6.15583C13.0691 6.06073 12.5385 6.00992 11.8942 6.00157C10.4321 5.98638 9.49277 6.08118 9.07621 6.28654C8.91116 6.37377 8.76172 6.49216 8.62818 6.64252C8.48657 6.81672 8.46704 6.91179 8.56935 6.92698C9.04108 6.99824 9.37489 7.16851 9.57142 7.43726L9.64225 7.57949C9.69717 7.68268 9.75213 7.8645 9.80731 8.12537C9.86227 8.38629 9.89766 8.67494 9.91353 8.99137C9.95284 9.56868 9.95284 10.0627 9.91353 10.4743C9.87422 10.8858 9.837 11.2059 9.80161 11.4348C9.76617 11.6643 9.71308 11.85 9.64251 11.9922C9.57168 12.135 9.52458 12.2219 9.50089 12.2536C9.4772 12.285 9.45767 12.3049 9.44206 12.3128C9.33975 12.3521 9.23378 12.372 9.12369 12.372C9.01355 12.372 8.87998 12.3165 8.72275 12.2057C8.56548 12.0954 8.40225 11.9429 8.23354 11.7491C8.06432 11.5556 7.87399 11.2845 7.66155 10.9363C7.44936 10.5887 7.22909 10.1772 7.00128 9.70282L6.81279 9.35861C6.69487 9.13754 6.53368 8.81507 6.32932 8.39203C6.12496 7.96898 5.944 7.55984 5.78702 7.16406C5.72402 6.99824 5.62975 6.87172 5.50405 6.7845L5.44521 6.74888C5.40591 6.71743 5.34291 6.68366 5.25646 6.64826C5.16977 6.61265 5.07971 6.58697 4.98519 6.571L1.75457 6.59459C1.42446 6.59459 1.20058 6.67004 1.08266 6.82036L1.03552 6.89137C1.0117 6.93117 1 6.99456 1 7.08128C1 7.16851 1.02369 7.27513 1.07083 7.40139C1.54255 8.51675 2.05546 9.5923 2.60946 10.628C3.16375 11.6643 3.64514 12.4988 4.05386 13.1314C4.46258 13.7645 4.87914 14.3612 5.30377 14.9228C5.7284 15.4844 6.00929 15.844 6.14674 16.002C6.28419 16.1605 6.39224 16.2792 6.4709 16.358L6.76561 16.643C6.95411 16.8327 7.23138 17.06 7.59693 17.3251C7.96243 17.5901 8.36703 17.8511 8.81145 18.1078C9.25535 18.365 9.77238 18.5743 10.3618 18.7367C10.9512 18.8991 11.525 18.9643 12.0832 18.9324H13.4391C13.7143 18.9088 13.9225 18.8221 14.0639 18.6714L14.111 18.6122C14.1422 18.5651 14.1719 18.4918 14.1995 18.393C14.2268 18.2942 14.2409 18.1853 14.2409 18.0669C14.2328 17.7269 14.2586 17.4199 14.3175 17.1475C14.3763 16.8745 14.4432 16.6692 14.518 16.5303C14.5927 16.3923 14.677 16.2755 14.7715 16.1804C14.8658 16.0853 14.9324 16.0284 14.972 16.0085C15.0113 15.9891 15.0428 15.9753 15.0663 15.9669C15.2547 15.9037 15.4768 15.965 15.7324 16.1507C15.9879 16.337 16.2277 16.5659 16.4518 16.8389C16.6756 17.1118 16.9448 17.418 17.2594 17.7583C17.5736 18.0982 17.8488 18.3513 18.0846 18.5174L18.3205 18.6601C18.4777 18.7547 18.6819 18.8417 18.9336 18.9211C19.1851 18.9999 19.4054 19.0198 19.5938 18.9802L22.6123 18.9326C22.9109 18.9326 23.1429 18.8833 23.308 18.7843C23.473 18.6861 23.5712 18.5766 23.6027 18.4582C23.6339 18.3396 23.636 18.2057 23.6087 18.0551C23.5811 17.905 23.5535 17.8002 23.5262 17.741C23.4986 17.6818 23.473 17.632 23.4493 17.5927C23.0563 16.881 22.3056 16.0069 21.1973 14.9709L21.1736 14.9473L21.1619 14.9353L21.1502 14.9238H21.1384C20.6352 14.4413 20.317 14.117 20.1834 13.9506C19.9398 13.6348 19.8846 13.3144 20.0184 12.9901C20.1121 12.7442 20.4657 12.2261 21.0788 11.435Z"></path></svg>